<svg xmlns="http://www.w3.org/2000/svg" xmlns:xlink="http://www.w3.org/1999/xlink" viewBox="0,0,256,256" width="50px" height="50px" fill-rule="nonzero"><g fill="#ffffff" fill-rule="nonzero" stroke="none" stroke-width="1" stroke-linecap="butt" stroke-linejoin="miter" stroke-miterlimit="10" stroke-dasharray="" stroke-dashoffset="0" font-family="none" font-weight="none" font-size="none" text-anchor="none" style="mix-blend-mode: normal"><g transform="scale(5.12,5.12)"><path d="M25,2c-0.36064,-0.0051 -0.69608,0.18438 -0.87789,0.49587c-0.18181,0.3115 -0.18181,0.69676 0,1.00825c0.18181,0.3115 0.51725,0.50097 0.87789,0.49587c11.60953,0 21,9.39047 21,21c0,11.60953 -9.39047,21 -21,21c-11.60953,0 -21,-9.39047 -21,-21c0,-6.69269 3.13071,-12.63519 8,-16.48047v6.48047c-0.0051,0.36064 0.18438,0.69608 0.49587,0.87789c0.3115,0.18181 0.69676,0.18181 1.00825,0c0.3115,-0.18181 0.50097,-0.51725 0.49587,-0.87789v-8.44922v-1.55078h-10c-0.36064,-0.0051 -0.69608,0.18438 -0.87789,0.49587c-0.18181,0.3115 -0.18181,0.69676 0,1.00825c0.18181,0.3115 0.51725,0.50097 0.87789,0.49587h6.69922c-5.29713,4.21481 -8.69922,10.7122 -8.69922,18c0,12.69047 10.30953,23 23,23c12.69047,0 23,-10.30953 23,-23c0,-12.69047 -10.30953,-23 -23,-23z"></path></g></g></svg>